<svg width="528.3499999999999px" height="120.8px" xmlns="http://www.w3.org/2000/svg" viewBox="-14.174999999999955 14.600000000000001 528.3499999999999 120.8" style="background: rgba(0, 0, 0, 0);" preserveAspectRatio="xMidYMid"><defs><linearGradient id="editing-shiny-gradient" x1="0.04322727117869957" x2="0.9567727288213004" y1="0.2966316784620999" y2="0.7033683215379001" gradientUnits="objectBoundingBox"><stop offset="0.0" stop-color="#ffb200"></stop><stop offset="0.5" stop-color="#e10057"></stop><stop offset="1.0" stop-color="#5A1A80"></stop></linearGradient><linearGradient id="editing-shiny-gradient2" x1="0" x2="0" y1="0" y2="1"><stop offset="0.2" stop-color="#fff" stop-opacity="0.8"></stop><stop offset="0.8" stop-color="#fff" stop-opacity="0"></stop></linearGradient><filter id="editing-shiny2" x="-100%" y="-100%" width="300%" height="300%"><feMorphology operator="erode" radius="2"></feMorphology></filter><filter id="editing-shiny" x="-100%" y="-100%" width="300%" height="300%"><feFlood flood-color="#fff" result="flood"></feFlood><feConvolveMatrix in="SourceGraphic" result="conv" order="8,8" divisor="1" kernelMatrix="0 0 0 0 0 0 0 0 0 0 0 1 1 0 0 0 0 0 0 1 1 0 0 0 0 0 1 0 0 1 0 0 0 0 1 0 0 1 0 0 0 1 0 0 0 0 1 0 0 1 1 0 0 1 1 0 0 0 0 1 1 0 0 0 "></feConvolveMatrix><feOffset dx="0" dy="4" in="conv" result="offset"></feOffset><feComposite operator="in" in="flood" in2="offset" result="comp"></feComposite><feGaussianBlur in="offset" stdDeviation="3" result="shadow"></feGaussianBlur><feColorMatrix in="shadow" type="matrix" values="0.7 0 0 0 0  0 0.7 0 0 0  0 0 0.7 0 0  0 0 0 0.3 0" result="dark-shadow"></feColorMatrix><feOffset dx="0" dy="4" in="dark-shadow" result="offset-shadow"></feOffset><feOffset dx="0" dy="2" in="conv" result="offset-2"></feOffset><feComposite operator="out" in="offset" in2="offset-2" result="edge-diff"></feComposite><feGaussianBlur in="edge-diff" stdDeviation="1" result="edge-blur"></feGaussianBlur><feColorMatrix in="edge-blur" result="edge-shadow" type="matrix" values="0 0 0 0 0  0 0 0 0 0  0 0 0 0 0  0 0 0 0.5 0"></feColorMatrix><feComposite operator="in" in="edge-shadow" in2="offset" result="edge-shadow-in"></feComposite><feOffset dx="0" dy="1" in="edge-shadow-in" result="edge-shadow-final"></feOffset><feMerge result="out"><feMergeNode in="offset-shadow"></feMergeNode><feMergeNode in="comp"></feMergeNode><feMergeNode in="edge-shadow-final"></feMergeNode><feMergeNode in="SourceGraphic"></feMergeNode></feMerge></filter></defs><g filter="url(#editing-shiny)"><g transform="translate(63.665022134780884, 97.46500015258789)"><path d="M14.21 0L0.51 0L8.32-42.05L8.32-42.05Q14.66-42.75 23.90-42.75L23.90-42.75L23.90-42.75Q33.15-42.75 37.44-40.06L37.44-40.06L37.44-40.06Q41.73-37.38 41.73-31.97L41.73-31.97L41.73-31.97Q41.73-26.56 38.94-23.17L38.94-23.17L38.94-23.17Q36.16-19.78 31.36-18.69L31.36-18.69L31.36-18.69Q32.45-13.38 34.94-9.09L34.94-9.09L34.94-9.09Q37.25-5.06 39.94-3.78L39.94-3.78L39.94-3.78Q38.98-1.09 37.02 0.10L37.02 0.10L37.02 0.10Q35.07 1.28 32.29 1.28L32.29 1.28L32.29 1.28Q29.50 1.28 27.33-0.35L27.33-0.35L27.33-0.35Q25.15-1.98 23.42-4.99L23.42-4.99L23.42-4.99Q19.78-11.52 19.39-21.82L19.39-21.82L19.84-21.82L19.84-21.82Q24.58-21.95 26.94-24.42L26.94-24.42L26.94-24.42Q29.31-26.88 29.31-32.06L29.31-32.06L29.31-32.06Q29.31-38.53 23.87-38.78L23.87-38.78L22.46-38.78L22.46-38.78Q21.89-38.78 21.57-38.72L21.57-38.72L14.21 0ZM72-9.86L72-9.86L72-9.86Q73.22-8.32 73.22-5.82L73.22-5.82L73.22-5.82Q73.22-2.37 70.66-0.54L70.66-0.54L70.66-0.54Q68.10 1.28 64.06 1.28L64.06 1.28L64.06 1.28Q61.76 1.28 58.24 0.77L58.24 0.77L58.24 0.77Q51.33-0.32 49.22-0.32L49.22-0.32L49.22-0.32Q47.10-0.32 46.27-0.22L46.27-0.22L46.27-0.22Q45.44-0.13 44.10 0L44.10 0L51.97-42.24L79.55-42.24L79.55-42.24Q79.55-38.34 77.66-36.29L77.66-36.29L77.66-36.29Q75.78-34.24 72.06-34.24L72.06-34.24L72.06-34.24Q68.35-34.24 64.58-35.97L64.58-35.97L62.59-24.77L73.98-24.77L73.98-24.77Q73.98-21.38 72.32-19.49L72.32-19.49L72.32-19.49Q70.66-17.60 67.87-17.60L67.87-17.60L67.87-17.60Q65.09-17.60 63.36-18.24L63.36-18.24L63.36-18.24Q61.63-18.88 61.44-19.07L61.44-19.07L59.14-6.98L59.14-6.98Q60.67-6.78 63.55-6.78L63.55-6.78L63.55-6.78Q68.48-6.78 72-9.86ZM120.64-26.56L120.64-26.56L120.64-26.56Q120.64 0.70 91.07 0.70L91.07 0.70L91.07 0.70Q86.34 0.70 78.53-0.45L78.53-0.45L85.70-38.27L85.70-38.27Q86.21-40.83 86.53-42.30L86.53-42.30L86.53-42.30Q96.26-43.01 100.58-43.01L100.58-43.01L100.58-43.01Q104.90-43.01 108.86-42.11L108.86-42.11L108.86-42.11Q112.83-41.22 115.46-39.23L115.46-39.23L115.46-39.23Q120.64-35.33 120.64-26.56ZM107.46-28.93L107.46-28.93L107.46-28.93Q107.46-38.46 100.61-38.46L100.61-38.46L99.97-38.46L99.97-38.46Q99.65-38.46 99.33-38.40L99.33-38.40L92.74-4.03L92.74-4.03Q92.99-3.90 93.25-3.90L93.25-3.90L93.76-3.90L93.76-3.90Q96.13-3.90 98.59-5.38L98.59-5.38L98.59-5.38Q101.06-6.85 102.98-9.86L102.98-9.86L102.98-9.86Q107.46-16.83 107.46-28.93ZM129.02-31.17L129.02-31.17L129.02-31.17Q126.85-32.83 126.85-36.38L126.85-36.38L126.85-36.38Q126.85-39.94 129.18-41.79L129.18-41.79L129.18-41.79Q131.52-43.65 135.55-43.65L135.55-43.65L135.55-43.65Q138.11-43.65 144.19-42.75L144.19-42.75L148.54-42.11L148.54-42.11Q150.72-41.86 152.99-41.86L152.99-41.86L152.99-41.86Q155.26-41.86 156.80-42.82L156.80-42.82L156.80-42.82Q159.10-40.77 159.10-37.82L159.10-37.82L159.10-37.82Q159.10-34.88 156.48-32.77L156.48-32.77L156.48-32.77Q153.79-30.53 150.34-30.53L150.34-30.53L150.34-30.53Q148.67-30.53 145.98-30.98L145.98-30.98L145.98-30.98Q142.85-21.12 142.85-14.27L142.85-14.27L142.85-14.27Q142.85-7.42 146.30-3.84L146.30-3.84L146.30-3.84Q144.70-0.96 142.34 0.16L142.34 0.16L142.34 0.16Q139.97 1.28 136.42 1.28L136.42 1.28L136.42 1.28Q132.86 1.28 130.66-0.67L130.66-0.67L130.66-0.67Q128.45-2.62 128.45-6.66L128.45-6.66L128.45-6.66Q128.45-11.33 131.01-19.01L131.01-19.01L131.01-19.01Q133.57-26.62 137.41-32.45L137.41-32.45L137.41-32.45Q135.55-32.64 133.63-32.64L133.63-32.64L133.63-32.64Q129.66-32.64 129.02-31.17ZM184.13 1.28L184.13 1.28L184.13 1.28Q175.94 1.28 175.17-10.37L175.17-10.37L164.16-10.37L164.16-10.37Q162.88-7.42 161.98-4.86L161.98-4.86L160.32 0L151.36 0L171.52-42.24L185.28-42.24L187.97-11.14L187.97-11.14Q188.61-4.42 191.17-2.43L191.17-2.43L191.17-2.43Q189.31 1.28 184.13 1.28ZM169.66-23.17L166.14-15.04L174.98-15.04L174.21-31.49L174.21-33.22L169.66-23.17ZM220.10-20.61L233.02-21.76L233.02-21.76Q228.42-11.65 228.42 0.06L228.42 0.06L228.42 0.06Q226.69 1.28 224.16 1.28L224.16 1.28L224.16 1.28Q221.63 1.28 220.03 0.10L220.03 0.10L220.03 0.10Q218.43-1.09 218.11-2.30L218.11-2.30L218.11-2.30Q216.51-0.64 213.92 0.32L213.92 0.32L213.92 0.32Q211.33 1.28 208.58 1.28L208.58 1.28L208.58 1.28Q205.82 1.28 203.42 0.38L203.42 0.38L203.42 0.38Q201.02-0.51 199.17-2.50L199.17-2.50L199.17-2.50Q195.07-6.85 195.07-15.10L195.07-15.10L195.07-15.10Q195.07-27.90 201.92-35.58L201.92-35.58L201.92-35.58Q208.96-43.52 221.44-43.52L221.44-43.52L221.44-43.52Q230.08-43.52 233.15-39.04L233.15-39.04L233.15-39.04Q234.11-37.63 234.11-35.94L234.11-35.94L234.11-35.94Q234.11-34.24 233.38-32.80L233.38-32.80L233.38-32.80Q232.64-31.36 231.49-30.21L231.49-30.21L231.49-30.21Q228.74-27.65 225.34-27.65L225.34-27.65L225.34-27.65Q224.00-27.65 222.72-28.10L222.72-28.10L222.72-28.10Q222.98-30.02 222.98-32.26L222.98-32.26L222.98-32.26Q222.98-34.50 222.82-35.52L222.82-35.52L222.82-35.52Q222.66-36.54 222.27-37.38L222.27-37.38L222.27-37.38Q221.44-39.10 219.62-39.10L219.62-39.10L219.62-39.10Q217.79-39.10 215.78-37.15L215.78-37.15L215.78-37.15Q213.76-35.20 212.16-32L212.16-32L212.16-32Q208.64-24.83 208.64-16.19L208.64-16.19L208.64-16.19Q208.64-12.22 210.18-9.41L210.18-9.41L210.18-9.41Q211.84-6.34 214.78-6.34L214.78-6.34L214.78-6.34Q215.81-6.34 216.74-6.85L216.74-6.85L216.74-6.85Q217.66-7.36 218.05-7.74L218.05-7.74L220.10-20.61ZM249.28 0L235.58 0L243.39-42.05L243.39-42.05Q249.73-42.75 258.98-42.75L258.98-42.75L258.98-42.75Q268.22-42.75 272.51-40.06L272.51-40.06L272.51-40.06Q276.80-37.38 276.80-31.97L276.80-31.97L276.80-31.97Q276.80-26.56 274.02-23.17L274.02-23.17L274.02-23.17Q271.23-19.78 266.43-18.69L266.43-18.69L266.43-18.69Q267.52-13.38 270.02-9.09L270.02-9.09L270.02-9.09Q272.32-5.06 275.01-3.78L275.01-3.78L275.01-3.78Q274.05-1.09 272.10 0.10L272.10 0.10L272.10 0.10Q270.14 1.28 267.36 1.28L267.36 1.28L267.36 1.28Q264.58 1.28 262.40-0.35L262.40-0.35L262.40-0.35Q260.22-1.98 258.50-4.99L258.50-4.99L258.50-4.99Q254.85-11.52 254.46-21.82L254.46-21.82L254.91-21.82L254.91-21.82Q259.65-21.95 262.02-24.42L262.02-24.42L262.02-24.42Q264.38-26.88 264.38-32.06L264.38-32.06L264.38-32.06Q264.38-38.53 258.94-38.78L258.94-38.78L257.54-38.78L257.54-38.78Q256.96-38.78 256.64-38.72L256.64-38.72L249.28 0ZM307.84 1.28L307.84 1.28L307.84 1.28Q299.65 1.28 298.88-10.37L298.88-10.37L287.87-10.37L287.87-10.37Q286.59-7.42 285.70-4.86L285.70-4.86L284.03 0L275.07 0L295.23-42.24L308.99-42.24L311.68-11.14L311.68-11.14Q312.32-4.42 314.88-2.43L314.88-2.43L314.88-2.43Q313.02 1.28 307.84 1.28ZM293.38-23.17L289.86-15.04L298.69-15.04L297.92-31.49L297.92-33.22L293.38-23.17ZM324.03 0L316.67 0L328.26-42.24L341.63-42.24L344.58-18.11L356.48-42.24L367.68-42.24L368.83-10.62L368.83-10.62Q369.09-4.35 372.16-2.43L372.16-2.43L372.16-2.43Q371.46-1.15 369.41 0.06L369.41 0.06L369.41 0.06Q367.36 1.28 364.64 1.28L364.64 1.28L364.64 1.28Q361.92 1.28 360.32 0.51L360.32 0.51L360.32 0.51Q358.72-0.26 357.82-1.54L357.82-1.54L357.82-1.54Q356.22-3.84 356.22-8.26L356.22-8.26L356.22-28.03L343.62 0L335.68 0L331.20-28.74L324.03 0Z" fill="url(#editing-shiny-gradient)"></path></g></g><g filter="url(#editing-shiny2)"><g transform="translate(63.66501069068909, 97.46500396728516)"><path d="M14.21 0L0.51 0L8.32-42.05L8.32-42.05Q14.66-42.75 23.90-42.75L23.90-42.75L23.90-42.75Q33.15-42.75 37.44-40.06L37.44-40.06L37.44-40.06Q41.73-37.38 41.73-31.97L41.73-31.97L41.73-31.97Q41.73-26.56 38.94-23.17L38.94-23.17L38.94-23.17Q36.16-19.78 31.36-18.69L31.36-18.69L31.36-18.69Q32.45-13.38 34.94-9.09L34.94-9.09L34.94-9.09Q37.25-5.06 39.94-3.78L39.94-3.78L39.94-3.78Q38.98-1.09 37.02 0.10L37.02 0.10L37.02 0.10Q35.07 1.28 32.29 1.28L32.29 1.28L32.29 1.28Q29.50 1.28 27.33-0.35L27.33-0.35L27.33-0.35Q25.15-1.98 23.42-4.99L23.42-4.99L23.42-4.99Q19.78-11.52 19.39-21.82L19.39-21.82L19.84-21.82L19.84-21.82Q24.58-21.95 26.94-24.42L26.94-24.42L26.94-24.42Q29.31-26.88 29.31-32.06L29.31-32.06L29.31-32.06Q29.31-38.53 23.87-38.78L23.87-38.78L22.46-38.78L22.46-38.78Q21.89-38.78 21.57-38.72L21.57-38.72L14.21 0ZM72-9.86L72-9.86L72-9.86Q73.22-8.32 73.22-5.82L73.22-5.82L73.22-5.82Q73.22-2.37 70.66-0.54L70.66-0.54L70.66-0.54Q68.10 1.28 64.06 1.28L64.06 1.28L64.06 1.28Q61.76 1.28 58.24 0.77L58.24 0.77L58.24 0.77Q51.33-0.32 49.22-0.32L49.22-0.32L49.22-0.32Q47.10-0.32 46.27-0.22L46.27-0.22L46.27-0.22Q45.44-0.13 44.10 0L44.10 0L51.97-42.24L79.55-42.24L79.55-42.24Q79.55-38.34 77.66-36.29L77.66-36.29L77.66-36.29Q75.78-34.24 72.06-34.24L72.06-34.24L72.06-34.24Q68.35-34.24 64.58-35.97L64.58-35.97L62.59-24.77L73.98-24.77L73.98-24.77Q73.98-21.38 72.32-19.49L72.32-19.49L72.32-19.49Q70.66-17.60 67.87-17.60L67.87-17.60L67.87-17.60Q65.09-17.60 63.36-18.24L63.36-18.24L63.36-18.24Q61.63-18.88 61.44-19.07L61.44-19.07L59.14-6.98L59.14-6.98Q60.67-6.78 63.55-6.78L63.55-6.78L63.55-6.78Q68.48-6.78 72-9.86ZM120.64-26.56L120.64-26.56L120.64-26.56Q120.64 0.70 91.07 0.70L91.07 0.70L91.07 0.70Q86.34 0.70 78.53-0.45L78.53-0.45L85.70-38.27L85.70-38.27Q86.21-40.83 86.53-42.30L86.53-42.30L86.53-42.30Q96.26-43.01 100.58-43.01L100.58-43.01L100.58-43.01Q104.90-43.01 108.86-42.11L108.86-42.11L108.86-42.11Q112.83-41.22 115.46-39.23L115.46-39.23L115.46-39.23Q120.64-35.33 120.64-26.56ZM107.46-28.93L107.46-28.93L107.46-28.93Q107.46-38.46 100.61-38.46L100.61-38.46L99.97-38.46L99.97-38.46Q99.65-38.46 99.33-38.40L99.33-38.40L92.74-4.03L92.74-4.03Q92.99-3.90 93.25-3.90L93.25-3.90L93.76-3.90L93.76-3.90Q96.13-3.90 98.59-5.38L98.59-5.38L98.59-5.38Q101.06-6.85 102.98-9.86L102.98-9.86L102.98-9.86Q107.46-16.83 107.46-28.93ZM129.02-31.17L129.02-31.17L129.02-31.17Q126.85-32.83 126.85-36.38L126.85-36.38L126.85-36.38Q126.85-39.94 129.18-41.79L129.18-41.79L129.18-41.79Q131.52-43.65 135.55-43.65L135.55-43.65L135.55-43.65Q138.11-43.65 144.19-42.75L144.19-42.75L148.54-42.11L148.54-42.11Q150.72-41.86 152.99-41.86L152.99-41.86L152.99-41.86Q155.26-41.86 156.80-42.82L156.80-42.82L156.80-42.82Q159.10-40.77 159.10-37.82L159.10-37.82L159.10-37.82Q159.10-34.88 156.48-32.77L156.48-32.77L156.48-32.77Q153.79-30.53 150.34-30.53L150.34-30.53L150.34-30.53Q148.67-30.53 145.98-30.98L145.98-30.98L145.98-30.98Q142.85-21.12 142.85-14.27L142.85-14.27L142.85-14.27Q142.85-7.42 146.30-3.84L146.30-3.84L146.30-3.84Q144.70-0.96 142.34 0.16L142.34 0.16L142.34 0.16Q139.97 1.28 136.42 1.28L136.42 1.28L136.42 1.28Q132.86 1.28 130.66-0.67L130.66-0.67L130.66-0.67Q128.45-2.62 128.45-6.66L128.45-6.66L128.45-6.66Q128.45-11.33 131.01-19.01L131.01-19.01L131.01-19.01Q133.57-26.62 137.41-32.45L137.41-32.45L137.41-32.45Q135.55-32.64 133.63-32.64L133.63-32.64L133.63-32.64Q129.66-32.64 129.02-31.17ZM184.13 1.28L184.13 1.28L184.13 1.28Q175.94 1.28 175.17-10.37L175.17-10.37L164.16-10.37L164.16-10.37Q162.88-7.42 161.98-4.86L161.98-4.86L160.32 0L151.36 0L171.52-42.24L185.28-42.24L187.97-11.14L187.97-11.14Q188.61-4.42 191.17-2.43L191.17-2.43L191.17-2.43Q189.31 1.28 184.13 1.28ZM169.66-23.17L166.14-15.04L174.98-15.04L174.21-31.49L174.21-33.22L169.66-23.17ZM220.10-20.61L233.02-21.76L233.02-21.76Q228.42-11.65 228.42 0.06L228.42 0.06L228.42 0.06Q226.69 1.28 224.16 1.28L224.16 1.28L224.16 1.28Q221.63 1.28 220.03 0.10L220.03 0.10L220.03 0.10Q218.43-1.09 218.11-2.30L218.11-2.30L218.11-2.30Q216.51-0.64 213.92 0.32L213.92 0.32L213.92 0.32Q211.33 1.28 208.58 1.28L208.58 1.28L208.58 1.28Q205.82 1.28 203.42 0.38L203.42 0.38L203.42 0.38Q201.02-0.51 199.17-2.50L199.17-2.50L199.17-2.50Q195.07-6.85 195.07-15.10L195.07-15.10L195.07-15.10Q195.07-27.90 201.92-35.58L201.92-35.58L201.92-35.58Q208.96-43.52 221.44-43.52L221.44-43.52L221.44-43.52Q230.08-43.52 233.15-39.04L233.15-39.04L233.15-39.04Q234.11-37.63 234.11-35.94L234.11-35.94L234.11-35.94Q234.11-34.24 233.38-32.80L233.38-32.80L233.38-32.80Q232.64-31.36 231.49-30.21L231.49-30.21L231.49-30.21Q228.74-27.65 225.34-27.65L225.34-27.65L225.34-27.65Q224.00-27.65 222.72-28.10L222.72-28.10L222.72-28.10Q222.98-30.02 222.98-32.26L222.98-32.26L222.98-32.26Q222.98-34.50 222.82-35.52L222.82-35.52L222.82-35.52Q222.66-36.54 222.27-37.38L222.27-37.38L222.27-37.38Q221.44-39.10 219.62-39.10L219.62-39.10L219.62-39.10Q217.79-39.10 215.78-37.15L215.78-37.15L215.78-37.15Q213.76-35.20 212.16-32L212.16-32L212.16-32Q208.64-24.83 208.64-16.19L208.64-16.19L208.64-16.19Q208.64-12.22 210.18-9.41L210.18-9.41L210.18-9.41Q211.84-6.34 214.78-6.34L214.78-6.34L214.78-6.34Q215.81-6.34 216.74-6.85L216.74-6.85L216.74-6.85Q217.66-7.36 218.05-7.74L218.05-7.74L220.10-20.61ZM249.28 0L235.58 0L243.39-42.05L243.39-42.05Q249.73-42.75 258.98-42.75L258.98-42.75L258.98-42.75Q268.22-42.75 272.51-40.06L272.51-40.06L272.51-40.06Q276.80-37.38 276.80-31.97L276.80-31.97L276.80-31.97Q276.80-26.56 274.02-23.17L274.02-23.17L274.02-23.17Q271.23-19.78 266.43-18.69L266.43-18.69L266.43-18.69Q267.52-13.38 270.02-9.09L270.02-9.09L270.02-9.09Q272.32-5.06 275.01-3.78L275.01-3.78L275.01-3.78Q274.05-1.09 272.10 0.10L272.10 0.10L272.10 0.10Q270.14 1.28 267.36 1.28L267.36 1.28L267.36 1.28Q264.58 1.28 262.40-0.35L262.40-0.35L262.40-0.35Q260.22-1.98 258.50-4.99L258.50-4.99L258.50-4.99Q254.85-11.52 254.46-21.82L254.46-21.82L254.91-21.82L254.91-21.82Q259.65-21.95 262.02-24.42L262.02-24.42L262.02-24.42Q264.38-26.88 264.38-32.06L264.38-32.06L264.38-32.06Q264.38-38.53 258.94-38.78L258.94-38.78L257.54-38.78L257.54-38.78Q256.96-38.78 256.64-38.72L256.64-38.72L249.28 0ZM307.84 1.28L307.84 1.28L307.84 1.28Q299.65 1.28 298.88-10.37L298.88-10.37L287.87-10.37L287.87-10.37Q286.59-7.42 285.70-4.86L285.70-4.86L284.03 0L275.07 0L295.23-42.24L308.99-42.24L311.68-11.14L311.68-11.14Q312.32-4.42 314.88-2.43L314.88-2.43L314.88-2.43Q313.02 1.28 307.84 1.28ZM293.38-23.17L289.86-15.04L298.69-15.04L297.92-31.49L297.92-33.22L293.38-23.17ZM324.03 0L316.67 0L328.26-42.24L341.63-42.24L344.58-18.11L356.48-42.24L367.68-42.24L368.83-10.62L368.83-10.62Q369.09-4.35 372.16-2.43L372.16-2.43L372.16-2.43Q371.46-1.15 369.41 0.06L369.41 0.06L369.41 0.06Q367.36 1.28 364.64 1.28L364.64 1.28L364.64 1.28Q361.92 1.28 360.32 0.51L360.32 0.51L360.32 0.51Q358.72-0.26 357.82-1.54L357.82-1.54L357.82-1.54Q356.22-3.84 356.22-8.26L356.22-8.26L356.22-28.03L343.62 0L335.68 0L331.20-28.74L324.03 0Z" fill="url(#editing-shiny-gradient2)"></path></g></g><style>text {
  font-size: 64px;
  font-family: Arial Black;
  dominant-baseline: central;
  text-anchor: middle;
}</style></svg>